<?xml version="1.0" encoding="UTF-8"?><svg xmlns="http://www.w3.org/2000/svg" xmlns:xlink="http://www.w3.org/1999/xlink" viewBox="0 0 570.02 174.76"><defs><style>.f{fill:url(#e);}.g{fill:url(#d);}.h{fill:#fff;}</style><linearGradient id="d" x1="29.36" y1="-52.99" x2="224.51" y2="159.54" gradientTransform="matrix(1, 0, 0, 1, 0, 0)" gradientUnits="userSpaceOnUse"><stop offset="0" stop-color="#feff55"/><stop offset="1" stop-color="#ff9b2a"/></linearGradient><linearGradient id="e" x1="6.44" y1="-33.25" x2="197.6" y2="174.94" xlink:href="#d"/></defs><g id="a"/><g id="b"><g id="c"><g><path class="h" d="M299.76,61.87h-17.96c-2.49,0-4.52-2.02-4.52-4.51v-12.54c0-.83-.67-1.51-1.51-1.51h-6.19c-.39,0-.76,.15-1.05,.42l-22.03,20.91c-.3,.29-.47,.69-.47,1.1v11.99c0,.83,.68,1.51,1.52,1.51h3.93c2.49,0,4.51,2.03,4.51,4.52v40.59c0,13.36,6.19,19.32,20.08,19.32,5.87,0,14.24-.82,20.82-2.05,.7-.13,1.22-.75,1.22-1.48v-14.07c0-.61-.34-.98-.54-1.15-.35-.3-.81-.41-1.27-.33-2.99,.54-5.51,.81-7.71,.81-9.47,0-11.46-5.41-11.46-9.95v-31.69c0-2.49,2.03-4.52,4.52-4.52h18.11c.84,0,1.52-.68,1.52-1.51v-14.35c0-.83-.68-1.51-1.52-1.51Z"/><path class="h" d="M335.52,61.87h-18.11c-.84,0-1.52,.68-1.52,1.51v77.12c0,.83,.68,1.51,1.52,1.51h18.11c.84,0,1.52-.68,1.52-1.51V63.38c0-.83-.68-1.51-1.52-1.51Zm.3-30.33h-18.71c-.84,0-1.52,.68-1.52,1.52v15.24c0,.84,.68,1.52,1.52,1.52h18.71c.84,0,1.52-.68,1.52-1.52v-15.24c0-.84-.68-1.52-1.52-1.52Z"/><path class="h" d="M427.87,29.88h-17.96c-.84,0-1.52,.68-1.52,1.51v24.58c0,1.26-.53,2.48-1.47,3.33-.94,.86-2.2,1.28-3.47,1.16-2.93-.27-5.51-.4-7.87-.4-28.14,0-41.81,14.46-41.81,44.22,0,24.57,12.02,39.24,32.15,39.24,6.62,0,13.42-1.59,19.66-4.59,1.13-.54,2.39-.6,3.55-.18,1.14,.42,2.05,1.26,2.55,2.37,.25,.54,.79,.89,1.38,.89h14.81c.84,0,1.51-.68,1.51-1.51V31.39c0-.83-.67-1.51-1.51-1.51Zm-19.63,88.71c0,1.84-1.1,3.48-2.81,4.18-5.22,2.14-9.86,3.23-13.78,3.23-7.43,0-16.29-4-16.29-23.08,0-17.94,6.98-25.94,22.63-25.94,2.07,0,4.14,.09,6.13,.28,2.35,.22,4.12,2.16,4.12,4.5v36.83Z"/><path class="h" d="M469.82,61.87h-18.12c-.83,0-1.51,.68-1.51,1.51v77.12c0,.83,.68,1.51,1.51,1.51h18.12c.83,0,1.51-.68,1.51-1.51V63.38c0-.83-.68-1.51-1.51-1.51Zm.3-30.33h-18.72c-.83,0-1.51,.68-1.51,1.52v15.24c0,.84,.68,1.52,1.51,1.52h18.72c.84,0,1.52-.68,1.52-1.52v-15.24c0-.84-.68-1.52-1.52-1.52Z"/><path class="h" d="M569.5,61.13c-.34-.29-.78-.42-1.23-.35-4.89,.72-10.09,1.09-15.46,1.09-6.85,0-12.88-.57-18.21-1.08-4.15-.39-7.74-.73-10.92-.73-22.39,0-35.77,10.95-35.77,29.28,0,8.54,3.37,15.36,9.75,19.72,1.17,.81,1.9,2.08,2,3.49,.08,1.38-.46,2.71-1.5,3.63-3.79,3.4-4.36,7.81-4.36,10.13,0,3.16,1.97,7.51,5.75,9.72l.74,.44v2.89l-1.09,.31c-8.62,2.5-12.64,7.61-12.64,16.07,0,12.97,11.27,19.02,35.46,19.02,20.94,0,45.89-4.53,45.89-26.12,0-17.91-12.27-20.38-25.51-20.38h-23.69c-4.47,0-7.24-2.65-7.24-6.93,0-.91,.13-1.87,.4-2.85,.58-2.17,2.65-3.56,4.9-3.3,3.69,.43,7.24,.43,8.57,.43,12.86,0,34.42-3.34,34.42-25.66,0-2.82-.55-5.41-1.63-7.71-.68-1.44-.56-3.1,.3-4.43,.86-1.31,2.3-2.05,3.88-2.03,2.15,.05,4.25,.1,6.18,.12,.38-.03,.79-.15,1.08-.43,.29-.29,.45-.67,.45-1.08v-12.12c0-.44-.19-.85-.52-1.14Zm-48.68,82.09h16.45c5.65,0,8.89,2.86,8.89,7.84,0,9.22-11.12,10.4-20.82,10.4s-17.04-.63-17.04-8.59c0-6.4,4.21-9.65,12.52-9.65Zm3.17-41.06c-9.95,0-14.78-4.29-14.78-13.12s4.97-13.42,14.78-13.42c12.09,0,14.62,7.22,14.62,13.27,0,8.93-4.78,13.27-14.62,13.27Z"/></g><g><rect class="g" width="181.08" height="27.27" rx="3.62" ry="3.62"/><rect class="h" y="58.71" width="74.35" height="72.8" rx="3.62" ry="3.62"/><rect class="f" x="106.73" y="58.71" width="74.35" height="115.49" rx="3.62" ry="3.62"/></g></g></g></svg>